REM DIRINDEX 1\5,1\2\6,1\2\7,1\3\8,1\3\9,1\4\10,1\4\11,1\4\12
REM DIRNAME cjc026,folder01,folder02,folder03,folder04,folder05,folder06,folder07,folder08,folder09,folder10,folder11
TITLE ""
FILE "EJE_DB3000_5th_2A_44.mp3" MP3
  TRACK 01 AUDIO
    TITLE "0:"
    INDEX 01 00:00:00
  TRACK 02 AUDIO
    TITLE "10:cjc026_08046"
    INDEX 01 00:00:08
  TRACK 03 AUDIO
    TITLE "0:"
    INDEX 01 00:01:30
  TRACK 04 AUDIO
    TITLE "11:cjc026_08047"
    INDEX 01 00:01:65
  TRACK 05 AUDIO
    TITLE "0:"
    INDEX 01 00:05:57
  TRACK 06 AUDIO
    TITLE "12:cjc026_08048"
    INDEX 01 00:06:17
  TRACK 07 AUDIO
    TITLE "0:"
    INDEX 01 00:07:36
  TRACK 08 AUDIO
    TITLE "10:cjc026_08049"
    INDEX 01 00:07:74
  TRACK 09 AUDIO
    TITLE "0:"
    INDEX 01 00:09:27
  TRACK 10 AUDIO
    TITLE "11:cjc026_08050"
    INDEX 01 00:09:64
  TRACK 11 AUDIO
    TITLE "0:"
    INDEX 01 00:11:14
  TRACK 12 AUDIO
    TITLE "12:cjc026_08051"
    INDEX 01 00:11:49
  TRACK 13 AUDIO
    TITLE "0:"
    INDEX 01 00:13:02
  TRACK 14 AUDIO
    TITLE "10:cjc026_08052"
    INDEX 01 00:13:37
  TRACK 15 AUDIO
    TITLE "0:"
    INDEX 01 00:14:59
  TRACK 16 AUDIO
    TITLE "11:cjc026_08053"
    INDEX 01 00:15:19
  TRACK 17 AUDIO
    TITLE "0:"
    INDEX 01 00:17:10
  TRACK 18 AUDIO
    TITLE "12:cjc026_08054"
    INDEX 01 00:17:45
  TRACK 19 AUDIO
    TITLE "0:"
    INDEX 01 00:18:67
  TRACK 20 AUDIO
    TITLE "10:cjc026_08055"
    INDEX 01 00:19:27
  TRACK 21 AUDIO
    TITLE "0:"
    INDEX 01 00:20:33
  TRACK 22 AUDIO
    TITLE "11:cjc026_08056"
    INDEX 01 00:20:71
  TRACK 23 AUDIO
    TITLE "0:"
    INDEX 01 00:22:37
  TRACK 24 AUDIO
    TITLE "12:cjc026_08057"
    INDEX 01 00:22:72
  TRACK 25 AUDIO
    TITLE "0:"
    INDEX 01 00:24:03
  TRACK 26 AUDIO
    TITLE "10:cjc026_08058"
    INDEX 01 00:24:38
  TRACK 27 AUDIO
    TITLE "0:"
    INDEX 01 00:25:60
  TRACK 28 AUDIO
    TITLE "11:cjc026_08059"
    INDEX 01 00:26:21
  TRACK 29 AUDIO
    TITLE "0:"
    INDEX 01 00:28:06
  TRACK 30 AUDIO
    TITLE "12:cjc026_08060"
    INDEX 01 00:28:41
  TRACK 31 AUDIO
    TITLE "0:"
    INDEX 01 00:29:60
  TRACK 32 AUDIO
    TITLE "10:cjc026_08061"
    INDEX 01 00:30:23
  TRACK 33 AUDIO
    TITLE "0:"
    INDEX 01 00:31:34
  TRACK 34 AUDIO
    TITLE "11:cjc026_08062"
    INDEX 01 00:31:69
  TRACK 35 AUDIO
    TITLE "0:"
    INDEX 01 00:33:06
  TRACK 36 AUDIO
    TITLE "12:cjc026_08063"
    INDEX 01 00:33:41
  TRACK 37 AUDIO
    TITLE "0:"
    INDEX 01 00:34:55
  TRACK 38 AUDIO
    TITLE "10:cjc026_08064"
    INDEX 01 00:35:18
  TRACK 39 AUDIO
    TITLE "0:"
    INDEX 01 00:36:37
  TRACK 40 AUDIO
    TITLE "11:cjc026_08065"
    INDEX 01 00:37:03
  TRACK 41 AUDIO
    TITLE "0:"
    INDEX 01 00:38:39
  TRACK 42 AUDIO
    TITLE "12:cjc026_08066"
    INDEX 01 00:39:01
  TRACK 43 AUDIO
    TITLE "0:"
    INDEX 01 00:40:24
  TRACK 44 AUDIO
    TITLE "10:cjc026_08067"
    INDEX 01 00:40:59
  TRACK 45 AUDIO
    TITLE "0:"
    INDEX 01 00:41:70
  TRACK 46 AUDIO
    TITLE "11:cjc026_08068"
    INDEX 01 00:42:33
  TRACK 47 AUDIO
    TITLE "0:"
    INDEX 01 00:43:44
  TRACK 48 AUDIO
    TITLE "12:cjc026_08069"
    INDEX 01 00:44:04
  TRACK 49 AUDIO
    TITLE "0:"
    INDEX 01 00:45:16
  TRACK 50 AUDIO
    TITLE "10:cjc026_08070"
    INDEX 01 00:45:54
  TRACK 51 AUDIO
    TITLE "0:"
    INDEX 01 00:46:68
  TRACK 52 AUDIO
    TITLE "11:cjc026_08071"
    INDEX 01 00:47:30
  TRACK 53 AUDIO
    TITLE "0:"
    INDEX 01 00:48:53
  TRACK 54 AUDIO
    TITLE "12:cjc026_08072"
    INDEX 01 00:49:15
  TRACK 55 AUDIO
    TITLE "0:"
    INDEX 01 00:50:30
  TRACK 56 AUDIO
    TITLE "10:cjc026_08073"
    INDEX 01 00:50:65
  TRACK 57 AUDIO
    TITLE "0:"
    INDEX 01 00:52:12
  TRACK 58 AUDIO
    TITLE "11:cjc026_08074"
    INDEX 01 00:52:50
  TRACK 59 AUDIO
    TITLE "0:"
    INDEX 01 00:54:18
  TRACK 60 AUDIO
    TITLE "12:cjc026_08075"
    INDEX 01 00:54:54
  TRACK 61 AUDIO
    TITLE "0:"
    INDEX 01 00:56:01
  TRACK 62 AUDIO
    TITLE "10:cjc026_08076"
    INDEX 01 00:56:36
  TRACK 63 AUDIO
    TITLE "0:"
    INDEX 01 00:57:47
  TRACK 64 AUDIO
    TITLE "11:cjc026_08077"
    INDEX 01 00:58:10
  TRACK 65 AUDIO
    TITLE "0:"
    INDEX 01 00:59:21
  TRACK 66 AUDIO
    TITLE "12:cjc026_08078"
    INDEX 01 00:59:57
  TRACK 67 AUDIO
    TITLE "0:"
    INDEX 01 01:00:68
  TRACK 68 AUDIO
    TITLE "10:cjc026_08079"
    INDEX 01 01:01:31
  TRACK 69 AUDIO
    TITLE "0:"
    INDEX 01 01:02:61
  TRACK 70 AUDIO
    TITLE "11:cjc026_08080"
    INDEX 01 01:03:24
  TRACK 71 AUDIO
    TITLE "0:"
    INDEX 01 01:04:41
  TRACK 72 AUDIO
    TITLE "12:cjc026_08081"
    INDEX 01 01:05:03
  TRACK 73 AUDIO
    TITLE "0:"
    INDEX 01 01:06:31
